<svg width="25" height="25" viewBox="0 0 25 25" fill="none" xmlns="http://www.w3.org/2000/svg">
<path d="M19.5312 23.0184C19.0625 23.2845 18.5381 23.4375 17.9688 23.4375C17.3994 23.4375 16.875 23.2845 16.4062 23.0184V17.6066C16.875 17.3405 17.3994 17.1875 17.9688 17.1875C18.5381 17.1875 19.0625 17.3405 19.5312 17.6066V23.0184ZM8.59375 17.6066C8.125 17.3405 7.60063 17.1875 7.03125 17.1875C6.46187 17.1875 5.8854 17.3405 5.46875 17.6066V23.0184C5.8854 23.2844 6.46187 23.4375 7.03125 23.4375C7.60063 23.4375 8.125 23.2844 8.59375 23.0184V17.6066ZM6.25 5.54604C5.78125 5.27998 5.25688 5.12695 4.6875 5.12695C4.11812 5.12695 3.54165 5.27998 3.125 5.54604V9.39531C3.54165 9.66143 4.11812 9.81445 4.6875 9.81445C5.25688 9.81445 5.78125 9.66143 6.25 9.39536V5.54604ZM21.875 5.54604C21.4062 5.27998 20.8819 5.12695 20.3125 5.12695C19.7431 5.12695 19.1667 5.27998 18.75 5.54604V9.39531C19.1667 9.66138 19.7431 9.8144 20.3125 9.8144C20.8819 9.8144 21.4062 9.66138 21.875 9.39531V5.54604Z" fill="#132028"/>
<path d="M4.6875 3.125H20.3125V21.0938H4.6875V3.125Z" fill="#FF473E"/>
<path d="M5.07812 3.51562H19.9219V14.4531H5.07812V3.51562Z" fill="#F9F9F7"/>
<path d="M8.98438 16.9922C8.98438 17.5315 8.54717 17.9688 8.00781 17.9688C7.46846 17.9688 7.03125 17.5315 7.03125 16.9922C7.03125 16.4528 7.46846 16.0156 8.00781 16.0156C8.54717 16.0156 8.98438 16.4528 8.98438 16.9922ZM16.9922 16.0156C16.4528 16.0156 16.0156 16.4528 16.0156 16.9922C16.0156 17.5315 16.4528 17.9688 16.9922 17.9688C17.5315 17.9688 17.9688 17.5315 17.9688 16.9922C17.9688 16.4528 17.5315 16.0156 16.9922 16.0156Z" fill="#FFD469"/>
<path d="M19.3359 13.6719H5.66406V6.64062H19.3359V13.6719ZM17.2363 4.29688H7.86133V5.85938H17.2363V4.29688Z" fill="#132028"/>
<path d="M6.83594 15.8203C6.83594 16.1439 6.57358 16.4062 6.25 16.4062C5.92642 16.4062 5.66406 16.1439 5.66406 15.8203C5.66406 15.4967 5.92642 15.2344 6.25 15.2344C6.57358 15.2344 6.83594 15.4967 6.83594 15.8203ZM18.7988 15.2344C18.4752 15.2344 18.2129 15.4967 18.2129 15.8203C18.2129 16.1439 18.4752 16.4062 18.7988 16.4062C19.1224 16.4062 19.3848 16.1439 19.3848 15.8203C19.3848 15.4967 19.1224 15.2344 18.7988 15.2344Z" fill="#D32A2A"/>
</svg>
