<svg width="116" height="116" viewBox="0 0 116 116" fill="none" xmlns="http://www.w3.org/2000/svg">
<path d="M82.5727 76.4247C87.118 71.6222 90.1564 65.5931 91.3124 59.0826C92.4683 52.572 91.6912 45.8654 89.0769 39.7918C86.4627 33.7181 82.126 28.5437 76.6029 24.9079C71.0798 21.2722 64.6124 19.3345 58 19.3345C51.3877 19.3345 44.9202 21.2722 39.3971 24.9079C33.874 28.5437 29.5373 33.7181 26.9231 39.7918C24.3089 45.8654 23.5317 52.572 24.6877 59.0826C25.8437 65.5931 28.8821 71.6222 33.4274 76.4247C36.0357 72.2624 39.6593 68.8315 43.9576 66.454C48.2559 64.0766 53.088 62.8307 58 62.8333C62.912 62.8307 67.7441 64.0766 72.0425 66.454C76.3408 68.8315 79.9643 72.2624 82.5727 76.4247ZM40.5275 83.5442L58 101.012L75.4725 83.5442C73.9056 80.2361 71.4318 77.4407 68.3387 75.4833C65.2457 73.5258 61.6604 72.4867 58 72.4867C54.3396 72.4867 50.7544 73.5258 47.6613 75.4833C44.5682 77.4407 42.0944 80.2361 40.5275 83.5442ZM58 114.685L27.2407 83.926C21.1572 77.8424 17.0142 70.0914 15.3358 61.6533C13.6574 53.2151 14.5189 44.4688 17.8113 36.5202C21.1037 28.5716 26.6792 21.7779 33.8328 16.9981C40.9863 12.2183 49.3966 9.66705 58 9.66705C66.6035 9.66705 75.0137 12.2183 82.1673 16.9981C89.3208 21.7779 94.8963 28.5716 98.1887 36.5202C101.481 44.4688 102.343 53.2151 100.664 61.6533C98.9858 70.0914 94.8429 77.8424 88.7594 83.926L58 114.685ZM58 48.3333C59.2819 48.3333 60.5113 47.8241 61.4177 46.9177C62.3241 46.0113 62.8334 44.7819 62.8334 43.5C62.8334 42.2181 62.3241 40.9888 61.4177 40.0823C60.5113 39.1759 59.2819 38.6667 58 38.6667C56.7181 38.6667 55.4888 39.1759 54.5823 40.0823C53.6759 40.9888 53.1667 42.2181 53.1667 43.5C53.1667 44.7819 53.6759 46.0113 54.5823 46.9177C55.4888 47.8241 56.7181 48.3333 58 48.3333ZM58 58C54.1544 58 50.4662 56.4723 47.747 53.7531C45.0277 51.0338 43.5 47.3456 43.5 43.5C43.5 39.6544 45.0277 35.9662 47.747 33.247C50.4662 30.5277 54.1544 29 58 29C61.8457 29 65.5338 30.5277 68.2531 33.247C70.9723 35.9662 72.5 39.6544 72.5 43.5C72.5 47.3456 70.9723 51.0338 68.2531 53.7531C65.5338 56.4723 61.8457 58 58 58Z" fill="#FBA63E"/>
</svg>
